<svg width="650" height="484" viewBox="0 0 650 484" fill="none" xmlns="http://www.w3.org/2000/svg">
<g clip-path="url(#clip0_80_3)">
<path d="M232.412 16.5329C230.475 18.2812 228.573 19.9051 226.636 21.6534C224.509 23.6171 222.382 25.5809 220.345 27.7022C217.96 30.1301 215.62 32.6368 213.246 35.2679C211.559 37.0827 209.962 39.055 208.275 40.8698C207.431 41.7772 206.463 42.6513 205.495 43.5255C204.718 44.1842 204.066 44.8761 203.289 45.5348C203.052 45.6714 202.736 45.8536 202.5 45.9903C202.397 45.6295 202.327 45.1444 202.224 44.7837C202.075 44.3441 202.051 43.9378 201.903 43.4983C201.581 42.2129 201.214 40.8487 200.893 39.5632C200.596 38.6841 200.299 37.805 200.047 37.0047C199.899 36.5652 199.671 36.1712 199.398 35.6984C199.171 35.3044 198.864 34.9559 198.558 34.6075C198.115 34.0226 197.39 33.4957 196.756 33.1263C196.337 32.9477 195.918 32.7692 195.388 32.7606C194.857 32.7519 194.371 32.8221 193.931 32.971C193.57 33.0745 193.175 33.3022 192.735 33.4512C192.42 33.6334 192.025 33.8612 191.71 34.0434C190.887 34.6233 190.156 35.3607 189.47 36.177C188.975 36.7778 188.435 37.2999 187.816 37.8674C186.893 38.8204 185.971 39.7733 185.094 40.8051C183.182 42.9597 181.224 45.0354 179.357 47.2688C177.03 49.9787 174.781 52.643 172.453 55.3529C170.316 57.8473 168.179 60.3417 165.952 62.6785C164.613 64.1867 163.184 65.5373 161.721 67.0123C160.337 68.4417 158.829 69.8378 157.23 71.0764C155.63 72.315 153.861 73.4415 151.955 74.3316C151.358 74.5717 150.714 74.7329 150.15 74.8487C149.743 74.8733 149.337 74.8979 148.885 74.8437C148.511 74.744 148.184 74.723 147.81 74.6233C147.686 74.59 147.516 74.478 147.471 74.3992C147.04 74.0175 146.643 73.5114 146.291 73.0842C145.666 72.1842 145.12 71.2385 144.619 70.3717C144.119 69.5049 143.619 68.6382 143.039 67.8169C142.266 66.4773 141.459 65.2621 140.528 64.0136C139.336 62.4954 138.019 60.944 136.208 59.9935C135.789 59.8149 135.371 59.6364 134.873 59.5034C134.375 59.3704 133.923 59.3162 133.471 59.262C132.567 59.1537 131.675 59.2485 130.828 59.422C130.388 59.571 129.994 59.7988 129.554 59.9477C129.475 59.9933 129.396 60.0388 129.317 60.0844C129.002 60.2666 128.765 60.4033 128.495 60.6643C127.594 61.2897 126.738 61.9939 125.927 62.777C125.196 63.5145 124.589 64.2852 123.903 65.1015C123.296 65.8722 122.565 66.6097 121.958 67.3804C120.586 69.013 119.305 70.8031 118.024 72.5933C116.856 74.2136 115.732 75.9126 114.609 77.6117C114.014 78.5856 113.374 79.4806 112.779 80.4545C111.847 81.9381 110.994 83.3762 110.062 84.8598C108.727 87.1018 107.312 89.3894 105.977 91.6314C104.496 94.1677 102.935 96.7495 101.409 99.207C99.557 102.377 97.5021 105.56 95.3108 108.506C94.4002 109.662 93.4897 110.818 92.5337 111.896C91.5776 112.973 90.6216 114.05 89.4502 114.937C88.5489 115.562 87.6476 116.188 86.5764 116.701C86.2153 116.804 85.8542 116.908 85.4931 117.011C85.2898 117.024 84.9621 117.003 84.7588 117.015C84.3857 116.915 84.1369 116.849 83.7637 116.749C83.6393 116.716 83.5938 116.637 83.4694 116.604C82.9931 116.143 82.4714 115.604 82.074 115.098C81.4947 114.277 80.9153 113.455 80.4149 112.589C79.8355 111.767 79.2562 110.946 78.8012 110.158C77.9489 108.864 76.9722 107.537 75.9621 106.334C75.3493 105.637 74.7032 105.064 74.0115 104.413C73.1955 103.728 72.4249 103.123 71.4966 102.608C70.7381 102.205 69.8673 101.973 69.0755 101.694C68.2047 101.462 67.2216 101.399 66.3629 101.369C65.6955 101.124 64.8489 101.298 63.9234 101.517C62.7946 101.748 61.8023 102.216 60.81 102.684C56.9197 104.51 53.6664 107.439 50.5708 110.277C47.3175 113.206 44.2795 116.325 41.3659 119.479C39.982 120.908 38.677 122.292 37.3385 123.8C35.3597 126.203 33.3019 128.652 31.3231 131.055C28.0513 135.046 24.8704 139.194 21.7685 143.296C20.9369 144.407 20.1053 145.517 19.2736 146.628C18.4754 147.614 17.8016 148.633 17.0489 149.698C15.51 151.953 14.05 154.161 12.5112 156.416C15.7403 153.08 18.8451 149.712 21.9954 146.422C24.572 143.779 27.1487 141.135 29.6799 138.413C32.4811 135.43 35.2369 132.368 37.9927 129.306C38.7575 128.444 39.6012 127.537 40.3205 126.596C41.6924 124.964 43.1552 123.489 44.5725 121.935C46.7213 119.644 48.87 117.352 51.0643 115.14C52.2236 114.05 53.304 113.006 54.4634 111.917C55.7016 110.782 56.9398 109.646 58.3024 108.545C59.9806 107.26 61.7498 106.134 63.701 105.323C64.4687 105.195 65.112 105.033 65.8797 104.905C66.4896 104.868 67.2239 104.865 67.8003 104.952C68.3768 105.04 68.9988 105.206 69.4964 105.339C70.0849 105.629 70.5946 105.965 71.1043 106.302C72.2601 107.21 73.2581 108.21 74.1773 109.255C75.4604 110.931 76.6311 112.777 77.8353 114.498C78.0628 114.892 78.3237 115.162 78.5512 115.556C79.0061 116.344 79.6644 117.119 80.1982 117.862C80.5046 118.21 80.7655 118.48 81.0719 118.828C81.3782 119.177 81.718 119.401 82.1367 119.58C82.4765 119.804 82.974 119.937 83.3927 120.115C83.687 120.26 84.0147 120.281 84.2635 120.348C84.5912 120.369 84.84 120.435 85.1677 120.456C86.0263 120.486 86.9184 120.391 87.7195 120.139C88.5995 119.841 89.434 119.464 90.1441 119.054C91.9588 118.006 93.546 116.565 94.93 115.135C95.6614 114.398 96.2684 113.627 96.8754 112.856C97.4824 112.086 98.1684 111.269 98.7754 110.498C100.056 108.708 101.337 106.918 102.572 105.049C103.055 104.245 103.617 103.396 104.099 102.592C104.47 101.958 104.761 101.369 105.177 100.814C106.254 99.036 107.286 97.1793 108.443 95.3559C109.666 93.2838 110.968 91.1661 112.192 89.094C113.527 86.852 114.829 84.7343 116.165 82.4923C116.793 81.3941 117.467 80.3746 118.22 79.3097C119.713 76.9765 121.252 74.7222 122.961 72.5799C124.017 71.1296 125.119 69.758 126.345 68.4197C127.492 67.1269 128.673 65.7098 130.035 64.6079C130.7 64.1192 131.286 63.6759 131.962 63.3903C132.041 63.3448 132.166 63.378 132.323 63.2869C132.606 63.229 132.854 63.2955 133.058 63.2832C133.431 63.383 133.804 63.4827 134.177 63.5824C134.426 63.6489 134.641 63.8398 134.936 63.9851C135.752 64.6697 136.455 65.5242 137.159 66.3787C137.999 67.4695 138.727 68.7303 139.41 69.9123C139.91 70.7791 140.411 71.6459 140.911 72.5127C141.457 73.4583 142.003 74.4039 142.594 75.4283C142.822 75.8223 143.174 76.2496 143.48 76.598C143.787 76.9465 144.047 77.2161 144.354 77.5646C144.66 77.913 145.124 78.1704 145.464 78.3945C145.68 78.5853 145.928 78.6518 146.177 78.7183C146.471 78.8636 146.766 79.0089 147.139 79.1086C147.558 79.2872 147.964 79.2625 148.337 79.3623C148.789 79.4165 149.242 79.4707 149.773 79.4793C150.179 79.4547 150.586 79.4301 150.992 79.4055C151.478 79.3353 151.963 79.2651 152.449 79.195C153.374 78.9758 154.288 78.5535 155.201 78.1313C156.193 77.6634 157.095 77.038 158.041 76.4914C159.732 75.4104 161.286 74.093 162.76 72.8212C164.348 71.3795 165.844 69.7802 167.34 68.1809C170.299 65.1066 172.964 61.887 175.708 58.6219C176.506 57.6357 177.383 56.6039 178.181 55.6177C180.048 53.3844 181.869 51.0722 183.781 48.9176C185.344 47.0696 186.907 45.2215 188.516 43.4523C189.28 42.5905 190.091 41.8074 190.856 40.9456C191.238 40.5147 191.699 40.0382 192.082 39.6073C192.734 38.9154 193.387 38.2234 194.164 37.5648C194.479 37.3826 194.795 37.2003 195.11 37.0181C195.189 36.9726 195.189 36.9726 195.268 36.927C195.484 37.1179 195.575 37.2755 195.79 37.4663C195.972 37.7815 196.108 38.0179 196.29 38.3331C196.885 40.0913 197.276 41.8618 197.712 43.7112C197.93 44.6358 198.149 45.5605 198.288 46.5307C198.346 46.8126 198.403 47.0946 198.382 47.4221C198.452 47.9072 198.679 48.3012 198.907 48.6952C198.998 48.8528 199.167 48.9648 199.304 49.2012C199.44 49.4376 199.61 49.5497 199.826 49.7405C200.132 50.089 200.551 50.2675 200.936 50.5704C201.06 50.6037 201.185 50.6369 201.23 50.7157C201.525 50.861 201.773 50.9275 202.101 50.9484C202.678 51.0359 203.084 51.0113 203.649 50.8955C204.574 50.6764 205.487 50.2541 206.231 49.7198C206.974 49.1855 207.672 48.5723 208.37 47.9592C208.99 47.3916 209.688 46.7785 210.307 46.2109C211.894 44.7692 213.266 43.1366 214.638 41.5041C217.302 38.2845 219.888 35.1105 222.429 31.8577C225.913 27.3244 229.646 22.8576 233.221 18.4819C234.132 17.3258 235.042 16.1697 236.077 15.0469C237.258 13.6298 238.393 12.1339 239.619 10.7956C237.061 12.3776 234.776 14.4325 232.412 16.5329ZM194.974 36.7817C195.053 36.7362 195.098 36.815 195.177 36.7694C195.053 36.7362 194.974 36.7817 194.974 36.7817ZM202.703 45.978C202.782 45.9324 202.782 45.9324 202.906 45.9657C202.782 45.9324 202.782 45.9324 202.703 45.978Z" fill="#6667AB"/>
</g>
<circle cx="93" cy="393" r="1" fill="#6667AB"/>
<circle cx="103" cy="393" r="1" fill="#6667AB"/>
<circle cx="113" cy="393" r="1" fill="#6667AB"/>
<circle cx="123" cy="393" r="1" fill="#6667AB"/>
<circle cx="133" cy="393" r="1" fill="#6667AB"/>
<circle cx="143" cy="393" r="1" fill="#6667AB"/>
<circle cx="153" cy="393" r="1" fill="#6667AB"/>
<circle cx="163" cy="393" r="1" fill="#6667AB"/>
<circle cx="173" cy="393" r="1" fill="#6667AB"/>
<circle cx="183" cy="393" r="1" fill="#6667AB"/>
<circle cx="193" cy="393" r="1" fill="#6667AB"/>
<circle cx="203" cy="393" r="1" fill="#6667AB"/>
<circle cx="93" cy="403" r="1" fill="#6667AB"/>
<circle cx="103" cy="403" r="1" fill="#6667AB"/>
<circle cx="113" cy="403" r="1" fill="#6667AB"/>
<circle cx="123" cy="403" r="1" fill="#6667AB"/>
<circle cx="133" cy="403" r="1" fill="#6667AB"/>
<circle cx="143" cy="403" r="1" fill="#6667AB"/>
<circle cx="153" cy="403" r="1" fill="#6667AB"/>
<circle cx="163" cy="403" r="1" fill="#6667AB"/>
<circle cx="173" cy="403" r="1" fill="#6667AB"/>
<circle cx="183" cy="403" r="1" fill="#6667AB"/>
<circle cx="193" cy="403" r="1" fill="#6667AB"/>
<circle cx="203" cy="403" r="1" fill="#6667AB"/>
<circle cx="93" cy="413" r="1" fill="#6667AB"/>
<circle cx="103" cy="413" r="1" fill="#6667AB"/>
<circle cx="113" cy="413" r="1" fill="#6667AB"/>
<circle cx="123" cy="413" r="1" fill="#6667AB"/>
<circle cx="133" cy="413" r="1" fill="#6667AB"/>
<circle cx="143" cy="413" r="1" fill="#6667AB"/>
<circle cx="153" cy="413" r="1" fill="#6667AB"/>
<circle cx="163" cy="413" r="1" fill="#6667AB"/>
<circle cx="173" cy="413" r="1" fill="#6667AB"/>
<circle cx="183" cy="413" r="1" fill="#6667AB"/>
<circle cx="193" cy="413" r="1" fill="#6667AB"/>
<circle cx="203" cy="413" r="1" fill="#6667AB"/>
<circle cx="93" cy="423" r="1" fill="#6667AB"/>
<circle cx="103" cy="423" r="1" fill="#6667AB"/>
<circle cx="113" cy="423" r="1" fill="#6667AB"/>
<circle cx="123" cy="423" r="1" fill="#6667AB"/>
<circle cx="133" cy="423" r="1" fill="#6667AB"/>
<circle cx="143" cy="423" r="1" fill="#6667AB"/>
<circle cx="153" cy="423" r="1" fill="#6667AB"/>
<circle cx="163" cy="423" r="1" fill="#6667AB"/>
<circle cx="173" cy="423" r="1" fill="#6667AB"/>
<circle cx="183" cy="423" r="1" fill="#6667AB"/>
<circle cx="193" cy="423" r="1" fill="#6667AB"/>
<circle cx="203" cy="423" r="1" fill="#6667AB"/>
<circle cx="93" cy="433" r="1" fill="#6667AB"/>
<circle cx="103" cy="433" r="1" fill="#6667AB"/>
<circle cx="113" cy="433" r="1" fill="#6667AB"/>
<circle cx="123" cy="433" r="1" fill="#6667AB"/>
<circle cx="133" cy="433" r="1" fill="#6667AB"/>
<circle cx="143" cy="433" r="1" fill="#6667AB"/>
<circle cx="153" cy="433" r="1" fill="#6667AB"/>
<circle cx="163" cy="433" r="1" fill="#6667AB"/>
<circle cx="173" cy="433" r="1" fill="#6667AB"/>
<circle cx="183" cy="433" r="1" fill="#6667AB"/>
<circle cx="193" cy="433" r="1" fill="#6667AB"/>
<circle cx="203" cy="433" r="1" fill="#6667AB"/>
<circle cx="93" cy="443" r="1" fill="#6667AB"/>
<circle cx="103" cy="443" r="1" fill="#6667AB"/>
<circle cx="113" cy="443" r="1" fill="#6667AB"/>
<circle cx="123" cy="443" r="1" fill="#6667AB"/>
<circle cx="133" cy="443" r="1" fill="#6667AB"/>
<circle cx="143" cy="443" r="1" fill="#6667AB"/>
<circle cx="153" cy="443" r="1" fill="#6667AB"/>
<circle cx="163" cy="443" r="1" fill="#6667AB"/>
<circle cx="173" cy="443" r="1" fill="#6667AB"/>
<circle cx="183" cy="443" r="1" fill="#6667AB"/>
<circle cx="193" cy="443" r="1" fill="#6667AB"/>
<circle cx="203" cy="443" r="1" fill="#6667AB"/>
<circle cx="93" cy="453" r="1" fill="#6667AB"/>
<circle cx="103" cy="453" r="1" fill="#6667AB"/>
<circle cx="113" cy="453" r="1" fill="#6667AB"/>
<circle cx="123" cy="453" r="1" fill="#6667AB"/>
<circle cx="133" cy="453" r="1" fill="#6667AB"/>
<circle cx="143" cy="453" r="1" fill="#6667AB"/>
<circle cx="153" cy="453" r="1" fill="#6667AB"/>
<circle cx="163" cy="453" r="1" fill="#6667AB"/>
<circle cx="173" cy="453" r="1" fill="#6667AB"/>
<circle cx="183" cy="453" r="1" fill="#6667AB"/>
<circle cx="193" cy="453" r="1" fill="#6667AB"/>
<circle cx="203" cy="453" r="1" fill="#6667AB"/>
<circle cx="93" cy="463" r="1" fill="#6667AB"/>
<circle cx="103" cy="463" r="1" fill="#6667AB"/>
<circle cx="113" cy="463" r="1" fill="#6667AB"/>
<circle cx="123" cy="463" r="1" fill="#6667AB"/>
<circle cx="133" cy="463" r="1" fill="#6667AB"/>
<circle cx="143" cy="463" r="1" fill="#6667AB"/>
<circle cx="153" cy="463" r="1" fill="#6667AB"/>
<circle cx="163" cy="463" r="1" fill="#6667AB"/>
<circle cx="173" cy="463" r="1" fill="#6667AB"/>
<circle cx="183" cy="463" r="1" fill="#6667AB"/>
<circle cx="193" cy="463" r="1" fill="#6667AB"/>
<circle cx="203" cy="463" r="1" fill="#6667AB"/>
<circle cx="93" cy="473" r="1" fill="#6667AB"/>
<circle cx="103" cy="473" r="1" fill="#6667AB"/>
<circle cx="113" cy="473" r="1" fill="#6667AB"/>
<circle cx="123" cy="473" r="1" fill="#6667AB"/>
<circle cx="133" cy="473" r="1" fill="#6667AB"/>
<circle cx="143" cy="473" r="1" fill="#6667AB"/>
<circle cx="153" cy="473" r="1" fill="#6667AB"/>
<circle cx="163" cy="473" r="1" fill="#6667AB"/>
<circle cx="173" cy="473" r="1" fill="#6667AB"/>
<circle cx="183" cy="473" r="1" fill="#6667AB"/>
<circle cx="193" cy="473" r="1" fill="#6667AB"/>
<circle cx="203" cy="473" r="1" fill="#6667AB"/>
<circle cx="93" cy="483" r="1" fill="#6667AB"/>
<circle cx="103" cy="483" r="1" fill="#6667AB"/>
<circle cx="113" cy="483" r="1" fill="#6667AB"/>
<circle cx="123" cy="483" r="1" fill="#6667AB"/>
<circle cx="133" cy="483" r="1" fill="#6667AB"/>
<circle cx="143" cy="483" r="1" fill="#6667AB"/>
<circle cx="153" cy="483" r="1" fill="#6667AB"/>
<circle cx="163" cy="483" r="1" fill="#6667AB"/>
<circle cx="173" cy="483" r="1" fill="#6667AB"/>
<circle cx="183" cy="483" r="1" fill="#6667AB"/>
<circle cx="193" cy="483" r="1" fill="#6667AB"/>
<circle cx="203" cy="483" r="1" fill="#6667AB"/>
<circle cx="497" cy="118" r="1" fill="#EFC173"/>
<circle cx="507" cy="118" r="1" fill="#EFC173"/>
<circle cx="517" cy="118" r="1" fill="#EFC173"/>
<circle cx="527" cy="118" r="1" fill="#EFC173"/>
<circle cx="537" cy="118" r="1" fill="#EFC173"/>
<circle cx="547" cy="118" r="1" fill="#EFC173"/>
<circle cx="557" cy="118" r="1" fill="#EFC173"/>
<circle cx="567" cy="118" r="1" fill="#EFC173"/>
<circle cx="577" cy="118" r="1" fill="#EFC173"/>
<circle cx="587" cy="118" r="1" fill="#EFC173"/>
<circle cx="597" cy="118" r="1" fill="#EFC173"/>
<circle cx="607" cy="118" r="1" fill="#EFC173"/>
<circle cx="497" cy="128" r="1" fill="#EFC173"/>
<circle cx="507" cy="128" r="1" fill="#EFC173"/>
<circle cx="517" cy="128" r="1" fill="#EFC173"/>
<circle cx="527" cy="128" r="1" fill="#EFC173"/>
<circle cx="537" cy="128" r="1" fill="#EFC173"/>
<circle cx="547" cy="128" r="1" fill="#EFC173"/>
<circle cx="557" cy="128" r="1" fill="#EFC173"/>
<circle cx="567" cy="128" r="1" fill="#EFC173"/>
<circle cx="577" cy="128" r="1" fill="#EFC173"/>
<circle cx="587" cy="128" r="1" fill="#EFC173"/>
<circle cx="597" cy="128" r="1" fill="#EFC173"/>
<circle cx="607" cy="128" r="1" fill="#EFC173"/>
<circle cx="497" cy="138" r="1" fill="#EFC173"/>
<circle cx="507" cy="138" r="1" fill="#EFC173"/>
<circle cx="517" cy="138" r="1" fill="#EFC173"/>
<circle cx="527" cy="138" r="1" fill="#EFC173"/>
<circle cx="537" cy="138" r="1" fill="#EFC173"/>
<circle cx="547" cy="138" r="1" fill="#EFC173"/>
<circle cx="557" cy="138" r="1" fill="#EFC173"/>
<circle cx="567" cy="138" r="1" fill="#EFC173"/>
<circle cx="577" cy="138" r="1" fill="#EFC173"/>
<circle cx="587" cy="138" r="1" fill="#EFC173"/>
<circle cx="597" cy="138" r="1" fill="#EFC173"/>
<circle cx="607" cy="138" r="1" fill="#EFC173"/>
<circle cx="497" cy="148" r="1" fill="#EFC173"/>
<circle cx="507" cy="148" r="1" fill="#EFC173"/>
<circle cx="517" cy="148" r="1" fill="#EFC173"/>
<circle cx="527" cy="148" r="1" fill="#EFC173"/>
<circle cx="537" cy="148" r="1" fill="#EFC173"/>
<circle cx="547" cy="148" r="1" fill="#EFC173"/>
<circle cx="557" cy="148" r="1" fill="#EFC173"/>
<circle cx="567" cy="148" r="1" fill="#EFC173"/>
<circle cx="577" cy="148" r="1" fill="#EFC173"/>
<circle cx="587" cy="148" r="1" fill="#EFC173"/>
<circle cx="597" cy="148" r="1" fill="#EFC173"/>
<circle cx="607" cy="148" r="1" fill="#EFC173"/>
<circle cx="497" cy="158" r="1" fill="#EFC173"/>
<circle cx="507" cy="158" r="1" fill="#EFC173"/>
<circle cx="517" cy="158" r="1" fill="#EFC173"/>
<circle cx="527" cy="158" r="1" fill="#EFC173"/>
<circle cx="537" cy="158" r="1" fill="#EFC173"/>
<circle cx="547" cy="158" r="1" fill="#EFC173"/>
<circle cx="557" cy="158" r="1" fill="#EFC173"/>
<circle cx="567" cy="158" r="1" fill="#EFC173"/>
<circle cx="577" cy="158" r="1" fill="#EFC173"/>
<circle cx="587" cy="158" r="1" fill="#EFC173"/>
<circle cx="597" cy="158" r="1" fill="#EFC173"/>
<circle cx="607" cy="158" r="1" fill="#EFC173"/>
<circle cx="497" cy="168" r="1" fill="#EFC173"/>
<circle cx="507" cy="168" r="1" fill="#EFC173"/>
<circle cx="517" cy="168" r="1" fill="#EFC173"/>
<circle cx="527" cy="168" r="1" fill="#EFC173"/>
<circle cx="537" cy="168" r="1" fill="#EFC173"/>
<circle cx="547" cy="168" r="1" fill="#EFC173"/>
<circle cx="557" cy="168" r="1" fill="#EFC173"/>
<circle cx="567" cy="168" r="1" fill="#EFC173"/>
<circle cx="577" cy="168" r="1" fill="#EFC173"/>
<circle cx="587" cy="168" r="1" fill="#EFC173"/>
<circle cx="597" cy="168" r="1" fill="#EFC173"/>
<circle cx="607" cy="168" r="1" fill="#EFC173"/>
<circle cx="497" cy="178" r="1" fill="#EFC173"/>
<circle cx="507" cy="178" r="1" fill="#EFC173"/>
<circle cx="517" cy="178" r="1" fill="#EFC173"/>
<circle cx="527" cy="178" r="1" fill="#EFC173"/>
<circle cx="537" cy="178" r="1" fill="#EFC173"/>
<circle cx="547" cy="178" r="1" fill="#EFC173"/>
<circle cx="557" cy="178" r="1" fill="#EFC173"/>
<circle cx="567" cy="178" r="1" fill="#EFC173"/>
<circle cx="577" cy="178" r="1" fill="#EFC173"/>
<circle cx="587" cy="178" r="1" fill="#EFC173"/>
<circle cx="597" cy="178" r="1" fill="#EFC173"/>
<circle cx="607" cy="178" r="1" fill="#EFC173"/>
<circle cx="497" cy="188" r="1" fill="#EFC173"/>
<circle cx="507" cy="188" r="1" fill="#EFC173"/>
<circle cx="517" cy="188" r="1" fill="#EFC173"/>
<circle cx="527" cy="188" r="1" fill="#EFC173"/>
<circle cx="537" cy="188" r="1" fill="#EFC173"/>
<circle cx="547" cy="188" r="1" fill="#EFC173"/>
<circle cx="557" cy="188" r="1" fill="#EFC173"/>
<circle cx="567" cy="188" r="1" fill="#EFC173"/>
<circle cx="577" cy="188" r="1" fill="#EFC173"/>
<circle cx="587" cy="188" r="1" fill="#EFC173"/>
<circle cx="597" cy="188" r="1" fill="#EFC173"/>
<circle cx="607" cy="188" r="1" fill="#EFC173"/>
<circle cx="497" cy="198" r="1" fill="#EFC173"/>
<circle cx="507" cy="198" r="1" fill="#EFC173"/>
<circle cx="517" cy="198" r="1" fill="#EFC173"/>
<circle cx="527" cy="198" r="1" fill="#EFC173"/>
<circle cx="537" cy="198" r="1" fill="#EFC173"/>
<circle cx="547" cy="198" r="1" fill="#EFC173"/>
<circle cx="557" cy="198" r="1" fill="#EFC173"/>
<circle cx="567" cy="198" r="1" fill="#EFC173"/>
<circle cx="577" cy="198" r="1" fill="#EFC173"/>
<circle cx="587" cy="198" r="1" fill="#EFC173"/>
<circle cx="597" cy="198" r="1" fill="#EFC173"/>
<circle cx="607" cy="198" r="1" fill="#EFC173"/>
<circle cx="497" cy="208" r="1" fill="#EFC173"/>
<circle cx="507" cy="208" r="1" fill="#EFC173"/>
<circle cx="517" cy="208" r="1" fill="#EFC173"/>
<circle cx="527" cy="208" r="1" fill="#EFC173"/>
<circle cx="537" cy="208" r="1" fill="#EFC173"/>
<circle cx="547" cy="208" r="1" fill="#EFC173"/>
<circle cx="557" cy="208" r="1" fill="#EFC173"/>
<circle cx="567" cy="208" r="1" fill="#EFC173"/>
<circle cx="577" cy="208" r="1" fill="#EFC173"/>
<circle cx="587" cy="208" r="1" fill="#EFC173"/>
<circle cx="597" cy="208" r="1" fill="#EFC173"/>
<circle cx="607" cy="208" r="1" fill="#EFC173"/>
<path d="M648.5 409C648.5 374.5 650.5 290 641 290C631.5 290 636 406.5 628.5 406.5C621 406.5 626 294.5 617.5 294.5C609 294.5 615 392.5 605.5 403C596 413.5 603.986 299.354 595 305C586.014 310.646 592.5 393.5 585.5 393.5C578.5 393.5 581 334.5 581 334.5" stroke="#EFC173" stroke-linecap="round"/>
<defs>
<clipPath id="clip0_80_3">
<rect width="269.491" height="31.4826" fill="white" transform="translate(0 134.746) rotate(-30)"/>
</clipPath>
</defs>
</svg>
