<svg width="397" height="164" viewBox="0 0 397 164" fill="none" xmlns="http://www.w3.org/2000/svg">
<circle cx="1" cy="73" r="1" fill="#6667AB"/>
<circle cx="11" cy="73" r="1" fill="#6667AB"/>
<circle cx="21" cy="73" r="1" fill="#6667AB"/>
<circle cx="31" cy="73" r="1" fill="#6667AB"/>
<circle cx="41" cy="73" r="1" fill="#6667AB"/>
<circle cx="51" cy="73" r="1" fill="#6667AB"/>
<circle cx="61" cy="73" r="1" fill="#6667AB"/>
<circle cx="71" cy="73" r="1" fill="#6667AB"/>
<circle cx="81" cy="73" r="1" fill="#6667AB"/>
<circle cx="91" cy="73" r="1" fill="#6667AB"/>
<circle cx="101" cy="73" r="1" fill="#6667AB"/>
<circle cx="111" cy="73" r="1" fill="#6667AB"/>
<circle cx="1" cy="83" r="1" fill="#6667AB"/>
<circle cx="11" cy="83" r="1" fill="#6667AB"/>
<circle cx="21" cy="83" r="1" fill="#6667AB"/>
<circle cx="31" cy="83" r="1" fill="#6667AB"/>
<circle cx="41" cy="83" r="1" fill="#6667AB"/>
<circle cx="51" cy="83" r="1" fill="#6667AB"/>
<circle cx="61" cy="83" r="1" fill="#6667AB"/>
<circle cx="71" cy="83" r="1" fill="#6667AB"/>
<circle cx="81" cy="83" r="1" fill="#6667AB"/>
<circle cx="91" cy="83" r="1" fill="#6667AB"/>
<circle cx="101" cy="83" r="1" fill="#6667AB"/>
<circle cx="111" cy="83" r="1" fill="#6667AB"/>
<circle cx="1" cy="93" r="1" fill="#6667AB"/>
<circle cx="11" cy="93" r="1" fill="#6667AB"/>
<circle cx="21" cy="93" r="1" fill="#6667AB"/>
<circle cx="31" cy="93" r="1" fill="#6667AB"/>
<circle cx="41" cy="93" r="1" fill="#6667AB"/>
<circle cx="51" cy="93" r="1" fill="#6667AB"/>
<circle cx="61" cy="93" r="1" fill="#6667AB"/>
<circle cx="71" cy="93" r="1" fill="#6667AB"/>
<circle cx="81" cy="93" r="1" fill="#6667AB"/>
<circle cx="91" cy="93" r="1" fill="#6667AB"/>
<circle cx="101" cy="93" r="1" fill="#6667AB"/>
<circle cx="111" cy="93" r="1" fill="#6667AB"/>
<circle cx="1" cy="103" r="1" fill="#6667AB"/>
<circle cx="11" cy="103" r="1" fill="#6667AB"/>
<circle cx="21" cy="103" r="1" fill="#6667AB"/>
<circle cx="31" cy="103" r="1" fill="#6667AB"/>
<circle cx="41" cy="103" r="1" fill="#6667AB"/>
<circle cx="51" cy="103" r="1" fill="#6667AB"/>
<circle cx="61" cy="103" r="1" fill="#6667AB"/>
<circle cx="71" cy="103" r="1" fill="#6667AB"/>
<circle cx="81" cy="103" r="1" fill="#6667AB"/>
<circle cx="91" cy="103" r="1" fill="#6667AB"/>
<circle cx="101" cy="103" r="1" fill="#6667AB"/>
<circle cx="111" cy="103" r="1" fill="#6667AB"/>
<circle cx="1" cy="113" r="1" fill="#6667AB"/>
<circle cx="11" cy="113" r="1" fill="#6667AB"/>
<circle cx="21" cy="113" r="1" fill="#6667AB"/>
<circle cx="31" cy="113" r="1" fill="#6667AB"/>
<circle cx="41" cy="113" r="1" fill="#6667AB"/>
<circle cx="51" cy="113" r="1" fill="#6667AB"/>
<circle cx="61" cy="113" r="1" fill="#6667AB"/>
<circle cx="71" cy="113" r="1" fill="#6667AB"/>
<circle cx="81" cy="113" r="1" fill="#6667AB"/>
<circle cx="91" cy="113" r="1" fill="#6667AB"/>
<circle cx="101" cy="113" r="1" fill="#6667AB"/>
<circle cx="111" cy="113" r="1" fill="#6667AB"/>
<circle cx="1" cy="123" r="1" fill="#6667AB"/>
<circle cx="11" cy="123" r="1" fill="#6667AB"/>
<circle cx="21" cy="123" r="1" fill="#6667AB"/>
<circle cx="31" cy="123" r="1" fill="#6667AB"/>
<circle cx="41" cy="123" r="1" fill="#6667AB"/>
<circle cx="51" cy="123" r="1" fill="#6667AB"/>
<circle cx="61" cy="123" r="1" fill="#6667AB"/>
<circle cx="71" cy="123" r="1" fill="#6667AB"/>
<circle cx="81" cy="123" r="1" fill="#6667AB"/>
<circle cx="91" cy="123" r="1" fill="#6667AB"/>
<circle cx="101" cy="123" r="1" fill="#6667AB"/>
<circle cx="111" cy="123" r="1" fill="#6667AB"/>
<circle cx="1" cy="133" r="1" fill="#6667AB"/>
<circle cx="11" cy="133" r="1" fill="#6667AB"/>
<circle cx="21" cy="133" r="1" fill="#6667AB"/>
<circle cx="31" cy="133" r="1" fill="#6667AB"/>
<circle cx="41" cy="133" r="1" fill="#6667AB"/>
<circle cx="51" cy="133" r="1" fill="#6667AB"/>
<circle cx="61" cy="133" r="1" fill="#6667AB"/>
<circle cx="71" cy="133" r="1" fill="#6667AB"/>
<circle cx="81" cy="133" r="1" fill="#6667AB"/>
<circle cx="91" cy="133" r="1" fill="#6667AB"/>
<circle cx="101" cy="133" r="1" fill="#6667AB"/>
<circle cx="111" cy="133" r="1" fill="#6667AB"/>
<circle cx="1" cy="143" r="1" fill="#6667AB"/>
<circle cx="11" cy="143" r="1" fill="#6667AB"/>
<circle cx="21" cy="143" r="1" fill="#6667AB"/>
<circle cx="31" cy="143" r="1" fill="#6667AB"/>
<circle cx="41" cy="143" r="1" fill="#6667AB"/>
<circle cx="51" cy="143" r="1" fill="#6667AB"/>
<circle cx="61" cy="143" r="1" fill="#6667AB"/>
<circle cx="71" cy="143" r="1" fill="#6667AB"/>
<circle cx="81" cy="143" r="1" fill="#6667AB"/>
<circle cx="91" cy="143" r="1" fill="#6667AB"/>
<circle cx="101" cy="143" r="1" fill="#6667AB"/>
<circle cx="111" cy="143" r="1" fill="#6667AB"/>
<circle cx="1" cy="153" r="1" fill="#6667AB"/>
<circle cx="11" cy="153" r="1" fill="#6667AB"/>
<circle cx="21" cy="153" r="1" fill="#6667AB"/>
<circle cx="31" cy="153" r="1" fill="#6667AB"/>
<circle cx="41" cy="153" r="1" fill="#6667AB"/>
<circle cx="51" cy="153" r="1" fill="#6667AB"/>
<circle cx="61" cy="153" r="1" fill="#6667AB"/>
<circle cx="71" cy="153" r="1" fill="#6667AB"/>
<circle cx="81" cy="153" r="1" fill="#6667AB"/>
<circle cx="91" cy="153" r="1" fill="#6667AB"/>
<circle cx="101" cy="153" r="1" fill="#6667AB"/>
<circle cx="111" cy="153" r="1" fill="#6667AB"/>
<circle cx="1" cy="163" r="1" fill="#6667AB"/>
<circle cx="11" cy="163" r="1" fill="#6667AB"/>
<circle cx="21" cy="163" r="1" fill="#6667AB"/>
<circle cx="31" cy="163" r="1" fill="#6667AB"/>
<circle cx="41" cy="163" r="1" fill="#6667AB"/>
<circle cx="51" cy="163" r="1" fill="#6667AB"/>
<circle cx="61" cy="163" r="1" fill="#6667AB"/>
<circle cx="71" cy="163" r="1" fill="#6667AB"/>
<circle cx="81" cy="163" r="1" fill="#6667AB"/>
<circle cx="91" cy="163" r="1" fill="#6667AB"/>
<circle cx="101" cy="163" r="1" fill="#6667AB"/>
<circle cx="111" cy="163" r="1" fill="#6667AB"/>
<path d="M214 56C214 56 233.702 1 238.799 1C243.897 1 261.808 51.5185 266.217 51.5185C270.625 51.5185 296.94 1 303.691 1C310.442 1 318.295 39.4321 322.98 39.7037C327.664 39.9753 361.556 1 367.756 1C373.956 1 396 43.3704 396 43.3704" stroke="#EFC173" stroke-linecap="round"/>
</svg>
