<svg width="226" height="198" viewBox="0 0 226 198" fill="none" xmlns="http://www.w3.org/2000/svg">
<path d="M170.5 133L170.5 157.5L147 157.5L147 178L124 178L124 197L100 197" stroke="#DCD4D1"/>
<path d="M5.69402 105.58L45.5025 78.3485M5.69402 105.58L9.93666 98.2311L49.7452 71M5.69402 105.58L22.4707 168.191L44.4455 162.303L52.1272 190.971L74.102 185.083M74.102 185.083L78.3447 177.735L64.0449 124.367M74.102 185.083L59.8023 131.716M45.5025 78.3485L49.7452 71M45.5025 78.3485L52.6524 105.032M49.7452 71L56.8951 97.6837L52.6524 105.032M59.8023 131.716L46.0873 135.391M59.8023 131.716L64.0449 124.367M64.0449 124.367L50.3299 128.042M52.6524 105.032L38.9374 108.707L46.0873 135.391M52.6524 105.032L44.7329 107.154L50.3299 128.042M46.0873 135.391L50.3299 128.042" stroke="#EFC173"/>
<path d="M193.479 123.473L165.95 116.096L170.22 100.158L150.902 94.9821L157.89 68.9021M193.479 123.473L214.831 43.7837M193.479 123.473L198.378 120.644L219.73 40.9553M214.831 43.7837L199.628 17.4517M214.831 43.7837L219.73 40.9553M199.628 17.4517L169.685 9.42831M199.628 17.4517L204.527 14.6233M169.685 9.42831L143.353 24.6311L138.176 43.9496L186.267 40.2711L178.244 70.2148M169.685 9.42831L174.584 6.59989L204.527 14.6233M219.73 40.9553L204.527 14.6233M157.89 68.9021L177.208 74.0785L178.244 70.2148M157.89 68.9021L162.789 66.0737L178.244 70.2148" stroke="#6667AB"/>
</svg>
