<svg width="40" height="40" viewBox="0 0 40 40" fill="none" xmlns="http://www.w3.org/2000/svg">
<path d="M27.2812 11.7991C25.9594 10.623 24.3721 9.7848 22.6553 9.35639C20.9386 8.92799 19.1436 8.92212 17.4241 9.33929C17.7277 9.74554 19.7232 12.4598 21.5223 15.7679C25.4286 14.3036 27.0804 12.0804 27.2812 11.7991V11.7991ZM21.875 21.8214C15.683 23.9777 13.4554 28.2768 13.2589 28.6786C15.1205 30.1295 17.4598 30.9955 20 30.9955C21.5223 30.9955 22.9732 30.6875 24.2902 30.125C24.125 29.1607 23.4911 25.8036 21.9464 21.7946L21.875 21.8214ZM24.0045 21.2902C25.442 25.2366 26.0268 28.4509 26.1384 29.1205C28.6027 27.4554 30.3571 24.817 30.8438 21.7589C30.4688 21.6429 27.4464 20.7411 24.0045 21.2902ZM20 0C8.95536 0 0 8.95536 0 20C0 31.0446 8.95536 40 20 40C31.0446 40 40 31.0446 40 20C40 8.95536 31.0446 0 20 0ZM20 32.8571C12.9107 32.8571 7.14286 27.0893 7.14286 20C7.14286 12.9107 12.9107 7.14286 20 7.14286C27.0893 7.14286 32.8571 12.9107 32.8571 20C32.8571 27.0893 27.0893 32.8571 20 32.8571ZM22.3705 17.4018C22.625 17.9241 22.8705 18.4554 23.0982 18.9911C23.1786 19.1786 23.2589 19.3661 23.3348 19.558C26.9866 19.0982 30.6205 19.8348 30.9821 19.9107C30.9598 17.317 30.0313 14.9375 28.5045 13.067C28.2679 13.3839 26.4286 15.7455 22.3705 17.4018V17.4018ZM19.4018 16.4286C17.5804 13.192 15.6205 10.4732 15.3304 10.0759C12.2589 11.5268 9.95982 14.3571 9.25 17.7634C9.74107 17.7723 14.2679 17.7946 19.4018 16.4286ZM20.7679 20.1116C20.9107 20.067 21.0536 20.0223 21.2009 19.9821C20.9241 19.3571 20.625 18.7321 20.3125 18.1205C14.8304 19.7634 9.50447 19.692 9.02679 19.683C9.02232 19.7946 9.02232 19.9063 9.02232 20.0179C9.02232 22.8393 10.0893 25.4152 11.8437 27.3616C12.0893 26.933 15.1027 21.942 20.7679 20.1116V20.1116Z" fill="#DCD4D1"/>
</svg>
